<mxfile host="app.diagrams.net" modified="2024-02-20T05:57:32.174Z" agent="Mozilla/5.0 (Windows NT 10.0; Win64; x64; rv:122.0) Gecko/20100101 Firefox/122.0" version="23.0.2" etag="L3QXAv_XpEEfh-p8aTM7" type="github">
  <diagram name="第 1 页" id="7Wf6cqTyHwaIPKZCL2vt">
    <mxGraphModel>
      <root>
        <mxCell id="0" />
        <mxCell id="1" parent="0" />
      </root>
    </mxGraphModel>
  </diagram>
</mxfile>
